<svg width="70" height="71" viewBox="0 0 70 71" fill="none" xmlns="http://www.w3.org/2000/svg">
<g clip-path="url(#clip0_72_14079)">
<rect y="0.5" width="70" height="70" rx="15" fill="#121123"/>
<path fill-rule="evenodd" clip-rule="evenodd" d="M10.9375 0.5H59.0625C65.1031 0.5 70 5.39689 70 11.4375V59.5625C70 65.6031 65.1031 70.5 59.0625 70.5H10.9375C4.89689 70.5 0 65.6031 0 59.5625V11.4375C0 5.39689 4.89689 0.5 10.9375 0.5ZM36.5134 26.7661C33.3787 28.07 27.1138 30.7685 17.7186 34.8619C16.1929 35.4686 15.3937 36.0621 15.321 36.6425C15.198 37.6233 16.4263 38.0095 18.0988 38.5354C18.3263 38.6069 18.562 38.6811 18.8037 38.7596C20.4492 39.2945 22.6628 39.9203 23.8135 39.9451C24.8573 39.9677 26.0223 39.5374 27.3085 38.6542C36.0868 32.7286 40.6181 29.7335 40.9026 29.6689C41.1033 29.6234 41.3815 29.5661 41.5699 29.7336C41.7583 29.9011 41.7398 30.2183 41.7199 30.3034C41.5982 30.8221 36.7769 35.3044 34.2819 37.624C33.5041 38.3471 32.9523 38.8601 32.8395 38.9772C32.5869 39.2397 32.3294 39.4879 32.0819 39.7265C30.5532 41.2002 29.4068 42.3053 32.1454 44.11C33.4614 44.9773 34.5146 45.6945 35.5652 46.4099C36.7126 47.1913 37.857 47.9706 39.3377 48.9413C39.7149 49.1885 40.0752 49.4454 40.4261 49.6956C41.7614 50.6475 42.961 51.5027 44.4431 51.3664C45.3043 51.2871 46.1938 50.4773 46.6456 48.0622C47.7133 42.3545 49.8119 29.9877 50.2969 24.8916C50.3394 24.4452 50.286 23.8738 50.243 23.6229C50.2001 23.3721 50.1104 23.0147 49.7844 22.7501C49.3982 22.4368 48.8021 22.3707 48.5355 22.3752C47.3233 22.3968 45.4636 23.0435 36.5134 26.7661Z" fill="white"/>
</g>
<defs>
<clipPath id="clip0_72_14079">
<rect y="0.5" width="70" height="70" rx="15" fill="white"/>
</clipPath>
</defs>
</svg>
