<svg width="71" height="71" viewBox="0 0 71 71" fill="none" xmlns="http://www.w3.org/2000/svg">
<g clip-path="url(#clip0_38_1207)">
<rect x="0.75" y="0.5" width="70" height="70" rx="15" fill="#121123"/>
<path fill-rule="evenodd" clip-rule="evenodd" d="M11.6875 0.5H59.8125C65.8531 0.5 70.75 5.39689 70.75 11.4375V59.5625C70.75 65.6031 65.8531 70.5 59.8125 70.5H11.6875C5.64689 70.5 0.75 65.6031 0.75 59.5625V11.4375C0.75 5.39689 5.64689 0.5 11.6875 0.5ZM37.2634 26.7661C34.1287 28.07 27.8638 30.7685 18.4686 34.8619C16.9429 35.4686 16.1437 36.0621 16.071 36.6425C15.948 37.6233 17.1763 38.0095 18.8488 38.5354C19.0763 38.6069 19.312 38.6811 19.5537 38.7596C21.1992 39.2945 23.4128 39.9203 24.5635 39.9451C25.6073 39.9677 26.7723 39.5374 28.0585 38.6542C36.8368 32.7286 41.3681 29.7335 41.6526 29.6689C41.8533 29.6234 42.1314 29.5661 42.3199 29.7336C42.5083 29.9011 42.4898 30.2183 42.4699 30.3034C42.3482 30.8221 37.5269 35.3044 35.0319 37.624C34.2541 38.3471 33.7023 38.8601 33.5895 38.9772C33.3369 39.2397 33.0794 39.4879 32.8319 39.7265C31.3032 41.2002 30.1568 42.3053 32.8954 44.11C34.2114 44.9773 35.2646 45.6944 36.3152 46.4099C37.4626 47.1913 38.607 47.9706 40.0877 48.9413C40.4649 49.1885 40.8252 49.4454 41.1761 49.6956C42.5114 50.6475 43.711 51.5027 45.1931 51.3664C46.0543 51.2871 46.9438 50.4773 47.3956 48.0622C48.4633 42.3545 50.5619 29.9877 51.0469 24.8916C51.0894 24.4452 51.036 23.8738 50.993 23.6229C50.9501 23.3721 50.8604 23.0147 50.5344 22.7501C50.1482 22.4368 49.5521 22.3707 49.2855 22.3752C48.0733 22.3968 46.2136 23.0435 37.2634 26.7661Z" fill="white"/>
</g>
<defs>
<clipPath id="clip0_38_1207">
<rect x="0.75" y="0.5" width="70" height="70" rx="15" fill="white"/>
</clipPath>
</defs>
</svg>
