<svg width="16" height="14" viewBox="0 0 16 14" fill="none" xmlns="http://www.w3.org/2000/svg">
<path d="M1.09992 6.07841C5.39487 4.20717 8.25885 2.97353 9.69185 2.37749C13.7834 0.675697 14.6335 0.380077 15.1877 0.370212C15.3095 0.368169 15.582 0.398373 15.7586 0.541606C15.9076 0.662549 15.9486 0.825926 15.9683 0.940593C15.9879 1.05526 16.0123 1.31648 15.9929 1.52058C15.7712 3.85021 14.8118 9.50361 14.3237 12.1128C14.1172 13.2169 13.7105 13.5871 13.3168 13.6233C12.4613 13.702 11.8116 13.0579 10.9829 12.5147C9.68624 11.6647 8.95369 11.1356 7.69503 10.3061C6.24042 9.34756 7.18338 8.82072 8.01236 7.95971C8.22931 7.73438 11.999 4.30558 12.0719 3.99453C12.0811 3.95563 12.0895 3.81062 12.0034 3.73405C11.9172 3.65749 11.7901 3.68367 11.6983 3.70449C11.5683 3.73401 9.4968 5.10319 5.48389 7.81201C4.89591 8.21577 4.36333 8.41249 3.88616 8.40218C3.36012 8.39082 2.34822 8.10475 1.59598 7.86023C0.673328 7.56031 -0.0599784 7.40174 0.00387615 6.89239C0.0371355 6.62708 0.402482 6.35576 1.09992 6.07841Z" fill="black"/>
</svg>
